<svg xmlns="http://www.w3.org/2000/svg" viewBox="-8 -6 164 120"><defs><style>.cls-1{fill:#1d1d1f;}</style></defs><g id="Layer_2" data-name="Layer 2"><g id="Layer_1-2" data-name="Layer 1"><path class="cls-1" d="M87.17,2.05a35.88,35.88,0,0,0-27.52,1.5L53,6.76l9.26,19.35A45.89,45.89,0,0,1,87.2,67a45.44,45.44,0,0,1-.93,9.23l5.36,11.17a35.9,35.9,0,0,0,48,16.88l6.67-3.21L107.64,20.46A35.75,35.75,0,0,0,87.17,2.05Z"/><path class="cls-1" d="M63.83,32.44A41.26,41.26,0,1,0,82.3,71,33,33,0,0,0,82.52,67,41.17,41.17,0,0,0,63.83,32.44Z"/></g></g></svg>
